<mxfile host="app.diagrams.net" modified="2024-05-18T21:45:59.599Z" agent="Mozilla/5.0 (X11; Linux x86_64) AppleWebKit/537.36 (KHTML, like Gecko) Chrome/124.0.0.0 Safari/537.36" etag="VDAT9bhkWQHo4iskvZUH" version="24.4.2" type="device">
  <diagram id="C5RBs43oDa-KdzZeNtuy" name="Page-1">
    <mxGraphModel dx="1366" dy="1927" grid="1" gridSize="10" guides="1" tooltips="1" connect="1" arrows="1" fold="1" page="1" pageScale="1" pageWidth="827" pageHeight="1169" math="0" shadow="0">
      <root>
        <mxCell id="WIyWlLk6GJQsqaUBKTNV-0" />
        <mxCell id="WIyWlLk6GJQsqaUBKTNV-1" parent="WIyWlLk6GJQsqaUBKTNV-0" />
        <mxCell id="SRNSHd6ge_EsEEtdElFu-2" value="" style="edgeStyle=orthogonalEdgeStyle;rounded=0;orthogonalLoop=1;jettySize=auto;html=1;" edge="1" parent="WIyWlLk6GJQsqaUBKTNV-1" source="S7_N-UKr1pL8a_zZHFVc-5" target="SRNSHd6ge_EsEEtdElFu-1">
          <mxGeometry relative="1" as="geometry" />
        </mxCell>
        <mxCell id="S7_N-UKr1pL8a_zZHFVc-5" value="Начало" style="strokeWidth=2;html=1;shape=mxgraph.flowchart.terminator;whiteSpace=wrap;" parent="WIyWlLk6GJQsqaUBKTNV-1" vertex="1">
          <mxGeometry x="360" y="-690" width="100" height="60" as="geometry" />
        </mxCell>
        <mxCell id="9ljaJpIGZ5TEdeZAWfaT-3" value="Конец" style="strokeWidth=2;html=1;shape=mxgraph.flowchart.terminator;whiteSpace=wrap;" parent="WIyWlLk6GJQsqaUBKTNV-1" vertex="1">
          <mxGeometry x="360" y="830" width="100" height="60" as="geometry" />
        </mxCell>
        <mxCell id="SRNSHd6ge_EsEEtdElFu-7" value="" style="edgeStyle=orthogonalEdgeStyle;rounded=0;orthogonalLoop=1;jettySize=auto;html=1;" edge="1" parent="WIyWlLk6GJQsqaUBKTNV-1" source="SRNSHd6ge_EsEEtdElFu-1" target="SRNSHd6ge_EsEEtdElFu-6">
          <mxGeometry relative="1" as="geometry" />
        </mxCell>
        <mxCell id="SRNSHd6ge_EsEEtdElFu-1" value="Ввод строки input" style="shape=parallelogram;perimeter=parallelogramPerimeter;whiteSpace=wrap;html=1;fixedSize=1;rounded=1;strokeColor=default;strokeWidth=2;align=center;verticalAlign=middle;arcSize=14;fontFamily=Helvetica;fontSize=12;fontColor=default;fillColor=default;" vertex="1" parent="WIyWlLk6GJQsqaUBKTNV-1">
          <mxGeometry x="310" y="-600" width="200" height="60" as="geometry" />
        </mxCell>
        <mxCell id="SRNSHd6ge_EsEEtdElFu-61" value="" style="edgeStyle=orthogonalEdgeStyle;rounded=0;orthogonalLoop=1;jettySize=auto;html=1;" edge="1" parent="WIyWlLk6GJQsqaUBKTNV-1" source="SRNSHd6ge_EsEEtdElFu-3" target="SRNSHd6ge_EsEEtdElFu-36">
          <mxGeometry relative="1" as="geometry" />
        </mxCell>
        <mxCell id="SRNSHd6ge_EsEEtdElFu-3" value="Вывод слов в result" style="shape=parallelogram;perimeter=parallelogramPerimeter;whiteSpace=wrap;html=1;fixedSize=1;rounded=1;strokeColor=default;strokeWidth=2;align=center;verticalAlign=middle;arcSize=14;fontFamily=Helvetica;fontSize=12;fontColor=default;fillColor=default;" vertex="1" parent="WIyWlLk6GJQsqaUBKTNV-1">
          <mxGeometry x="310" y="670" width="200" height="60" as="geometry" />
        </mxCell>
        <mxCell id="SRNSHd6ge_EsEEtdElFu-9" value="" style="edgeStyle=orthogonalEdgeStyle;rounded=0;orthogonalLoop=1;jettySize=auto;html=1;" edge="1" parent="WIyWlLk6GJQsqaUBKTNV-1" source="SRNSHd6ge_EsEEtdElFu-6" target="SRNSHd6ge_EsEEtdElFu-8">
          <mxGeometry relative="1" as="geometry" />
        </mxCell>
        <mxCell id="SRNSHd6ge_EsEEtdElFu-6" value="&lt;div&gt;Инициализация max_words, result_size, result;&lt;/div&gt;&lt;div&gt;Установка start на начало input&lt;/div&gt;" style="rounded=1;whiteSpace=wrap;html=1;absoluteArcSize=1;arcSize=14;strokeWidth=2;strokeColor=default;align=center;verticalAlign=middle;fillColor=default;" vertex="1" parent="WIyWlLk6GJQsqaUBKTNV-1">
          <mxGeometry x="310" y="-510" width="200" height="60" as="geometry" />
        </mxCell>
        <mxCell id="SRNSHd6ge_EsEEtdElFu-14" style="edgeStyle=orthogonalEdgeStyle;rounded=0;orthogonalLoop=1;jettySize=auto;html=1;entryX=0.5;entryY=0;entryDx=0;entryDy=0;" edge="1" parent="WIyWlLk6GJQsqaUBKTNV-1" source="SRNSHd6ge_EsEEtdElFu-8" target="SRNSHd6ge_EsEEtdElFu-10">
          <mxGeometry relative="1" as="geometry" />
        </mxCell>
        <mxCell id="SRNSHd6ge_EsEEtdElFu-44" value="Да" style="edgeLabel;html=1;align=center;verticalAlign=middle;resizable=0;points=[];" vertex="1" connectable="0" parent="SRNSHd6ge_EsEEtdElFu-14">
          <mxGeometry x="0.0296" y="1" relative="1" as="geometry">
            <mxPoint x="21" y="-4" as="offset" />
          </mxGeometry>
        </mxCell>
        <mxCell id="SRNSHd6ge_EsEEtdElFu-37" style="edgeStyle=orthogonalEdgeStyle;rounded=0;orthogonalLoop=1;jettySize=auto;html=1;entryX=0.5;entryY=0;entryDx=0;entryDy=0;" edge="1" parent="WIyWlLk6GJQsqaUBKTNV-1" source="SRNSHd6ge_EsEEtdElFu-8" target="SRNSHd6ge_EsEEtdElFu-3">
          <mxGeometry relative="1" as="geometry">
            <Array as="points">
              <mxPoint x="800" y="-390" />
              <mxPoint x="800" y="640" />
              <mxPoint x="410" y="640" />
            </Array>
          </mxGeometry>
        </mxCell>
        <mxCell id="SRNSHd6ge_EsEEtdElFu-45" value="Нет" style="edgeLabel;html=1;align=center;verticalAlign=middle;resizable=0;points=[];" vertex="1" connectable="0" parent="SRNSHd6ge_EsEEtdElFu-37">
          <mxGeometry x="-0.9589" y="2" relative="1" as="geometry">
            <mxPoint x="-4" y="-18" as="offset" />
          </mxGeometry>
        </mxCell>
        <mxCell id="SRNSHd6ge_EsEEtdElFu-8" value="&lt;p style=&quot;line-height: 80%;&quot;&gt;*start != &#39;\0&#39;&lt;br&gt;&lt;/p&gt;" style="strokeWidth=2;html=1;shape=mxgraph.flowchart.decision;whiteSpace=wrap;" vertex="1" parent="WIyWlLk6GJQsqaUBKTNV-1">
          <mxGeometry x="310" y="-420" width="200" height="60" as="geometry" />
        </mxCell>
        <mxCell id="SRNSHd6ge_EsEEtdElFu-10" value="Пропуск пробелов: пока *start == пробел, start++" style="rounded=1;whiteSpace=wrap;html=1;absoluteArcSize=1;arcSize=14;strokeWidth=2;strokeColor=default;align=center;verticalAlign=middle;fillColor=default;" vertex="1" parent="WIyWlLk6GJQsqaUBKTNV-1">
          <mxGeometry x="310" y="-330" width="200" height="60" as="geometry" />
        </mxCell>
        <mxCell id="SRNSHd6ge_EsEEtdElFu-20" value="" style="edgeStyle=orthogonalEdgeStyle;rounded=0;orthogonalLoop=1;jettySize=auto;html=1;" edge="1" parent="WIyWlLk6GJQsqaUBKTNV-1" source="SRNSHd6ge_EsEEtdElFu-11" target="SRNSHd6ge_EsEEtdElFu-16">
          <mxGeometry relative="1" as="geometry" />
        </mxCell>
        <mxCell id="SRNSHd6ge_EsEEtdElFu-47" value="Нет" style="edgeLabel;html=1;align=center;verticalAlign=middle;resizable=0;points=[];" vertex="1" connectable="0" parent="SRNSHd6ge_EsEEtdElFu-20">
          <mxGeometry x="-0.6133" y="-1" relative="1" as="geometry">
            <mxPoint x="21" as="offset" />
          </mxGeometry>
        </mxCell>
        <mxCell id="SRNSHd6ge_EsEEtdElFu-43" style="edgeStyle=orthogonalEdgeStyle;rounded=0;orthogonalLoop=1;jettySize=auto;html=1;" edge="1" parent="WIyWlLk6GJQsqaUBKTNV-1" source="SRNSHd6ge_EsEEtdElFu-11">
          <mxGeometry relative="1" as="geometry">
            <mxPoint x="800" y="-210" as="targetPoint" />
          </mxGeometry>
        </mxCell>
        <mxCell id="SRNSHd6ge_EsEEtdElFu-46" value="Да" style="edgeLabel;html=1;align=center;verticalAlign=middle;resizable=0;points=[];" vertex="1" connectable="0" parent="SRNSHd6ge_EsEEtdElFu-43">
          <mxGeometry x="-0.7877" y="2" relative="1" as="geometry">
            <mxPoint x="-1" y="-18" as="offset" />
          </mxGeometry>
        </mxCell>
        <mxCell id="SRNSHd6ge_EsEEtdElFu-11" value="&lt;p style=&quot;line-height: 80%;&quot;&gt;*start == &#39;\0&#39;&lt;br&gt;&lt;/p&gt;" style="strokeWidth=2;html=1;shape=mxgraph.flowchart.decision;whiteSpace=wrap;" vertex="1" parent="WIyWlLk6GJQsqaUBKTNV-1">
          <mxGeometry x="310" y="-240" width="200" height="60" as="geometry" />
        </mxCell>
        <mxCell id="SRNSHd6ge_EsEEtdElFu-15" style="edgeStyle=orthogonalEdgeStyle;rounded=0;orthogonalLoop=1;jettySize=auto;html=1;entryX=0.5;entryY=0;entryDx=0;entryDy=0;entryPerimeter=0;" edge="1" parent="WIyWlLk6GJQsqaUBKTNV-1" source="SRNSHd6ge_EsEEtdElFu-10" target="SRNSHd6ge_EsEEtdElFu-11">
          <mxGeometry relative="1" as="geometry" />
        </mxCell>
        <mxCell id="SRNSHd6ge_EsEEtdElFu-21" value="" style="edgeStyle=orthogonalEdgeStyle;rounded=0;orthogonalLoop=1;jettySize=auto;html=1;" edge="1" parent="WIyWlLk6GJQsqaUBKTNV-1" source="SRNSHd6ge_EsEEtdElFu-16" target="SRNSHd6ge_EsEEtdElFu-17">
          <mxGeometry relative="1" as="geometry" />
        </mxCell>
        <mxCell id="SRNSHd6ge_EsEEtdElFu-16" value="Установка end на start" style="rounded=1;whiteSpace=wrap;html=1;absoluteArcSize=1;arcSize=14;strokeWidth=2;strokeColor=default;align=center;verticalAlign=middle;fillColor=default;" vertex="1" parent="WIyWlLk6GJQsqaUBKTNV-1">
          <mxGeometry x="310" y="-150" width="200" height="60" as="geometry" />
        </mxCell>
        <mxCell id="SRNSHd6ge_EsEEtdElFu-22" value="" style="edgeStyle=orthogonalEdgeStyle;rounded=0;orthogonalLoop=1;jettySize=auto;html=1;" edge="1" parent="WIyWlLk6GJQsqaUBKTNV-1" source="SRNSHd6ge_EsEEtdElFu-17" target="SRNSHd6ge_EsEEtdElFu-18">
          <mxGeometry relative="1" as="geometry" />
        </mxCell>
        <mxCell id="SRNSHd6ge_EsEEtdElFu-48" value="Да" style="edgeLabel;html=1;align=center;verticalAlign=middle;resizable=0;points=[];" vertex="1" connectable="0" parent="SRNSHd6ge_EsEEtdElFu-22">
          <mxGeometry x="0.3533" y="2" relative="1" as="geometry">
            <mxPoint x="18" y="-4" as="offset" />
          </mxGeometry>
        </mxCell>
        <mxCell id="SRNSHd6ge_EsEEtdElFu-24" style="edgeStyle=orthogonalEdgeStyle;rounded=0;orthogonalLoop=1;jettySize=auto;html=1;entryX=0.5;entryY=0;entryDx=0;entryDy=0;" edge="1" parent="WIyWlLk6GJQsqaUBKTNV-1" source="SRNSHd6ge_EsEEtdElFu-17" target="SRNSHd6ge_EsEEtdElFu-23">
          <mxGeometry relative="1" as="geometry">
            <Array as="points">
              <mxPoint x="600" y="-30" />
              <mxPoint x="600" y="110" />
              <mxPoint x="410" y="110" />
            </Array>
          </mxGeometry>
        </mxCell>
        <mxCell id="SRNSHd6ge_EsEEtdElFu-49" value="Нет" style="edgeLabel;html=1;align=center;verticalAlign=middle;resizable=0;points=[];" vertex="1" connectable="0" parent="SRNSHd6ge_EsEEtdElFu-24">
          <mxGeometry x="-0.8636" y="-2" relative="1" as="geometry">
            <mxPoint x="-10" y="-22" as="offset" />
          </mxGeometry>
        </mxCell>
        <mxCell id="SRNSHd6ge_EsEEtdElFu-17" value="&lt;p style=&quot;line-height: 80%;&quot;&gt;*end != пробел и *end != &#39;\0&lt;br&gt;&lt;/p&gt;" style="strokeWidth=2;html=1;shape=mxgraph.flowchart.decision;whiteSpace=wrap;" vertex="1" parent="WIyWlLk6GJQsqaUBKTNV-1">
          <mxGeometry x="310" y="-60" width="200" height="60" as="geometry" />
        </mxCell>
        <mxCell id="SRNSHd6ge_EsEEtdElFu-18" value="end++" style="rounded=1;whiteSpace=wrap;html=1;absoluteArcSize=1;arcSize=14;strokeWidth=2;strokeColor=default;align=center;verticalAlign=middle;fillColor=default;" vertex="1" parent="WIyWlLk6GJQsqaUBKTNV-1">
          <mxGeometry x="310" y="30" width="200" height="60" as="geometry" />
        </mxCell>
        <mxCell id="SRNSHd6ge_EsEEtdElFu-23" value="Создание слова: выделение памяти, копирование символов, добавление &#39;\0&#39;" style="rounded=1;whiteSpace=wrap;html=1;absoluteArcSize=1;arcSize=14;strokeWidth=2;strokeColor=default;align=center;verticalAlign=middle;fillColor=default;" vertex="1" parent="WIyWlLk6GJQsqaUBKTNV-1">
          <mxGeometry x="310" y="130" width="200" height="60" as="geometry" />
        </mxCell>
        <mxCell id="SRNSHd6ge_EsEEtdElFu-26" style="edgeStyle=orthogonalEdgeStyle;rounded=0;orthogonalLoop=1;jettySize=auto;html=1;entryX=0;entryY=0.5;entryDx=0;entryDy=0;entryPerimeter=0;" edge="1" parent="WIyWlLk6GJQsqaUBKTNV-1" source="SRNSHd6ge_EsEEtdElFu-18" target="SRNSHd6ge_EsEEtdElFu-17">
          <mxGeometry relative="1" as="geometry">
            <Array as="points">
              <mxPoint x="270" y="60" />
              <mxPoint x="270" y="-30" />
            </Array>
          </mxGeometry>
        </mxCell>
        <mxCell id="SRNSHd6ge_EsEEtdElFu-34" value="" style="edgeStyle=orthogonalEdgeStyle;rounded=0;orthogonalLoop=1;jettySize=auto;html=1;" edge="1" parent="WIyWlLk6GJQsqaUBKTNV-1" source="SRNSHd6ge_EsEEtdElFu-27" target="SRNSHd6ge_EsEEtdElFu-30">
          <mxGeometry relative="1" as="geometry" />
        </mxCell>
        <mxCell id="SRNSHd6ge_EsEEtdElFu-52" value="Нет" style="edgeLabel;html=1;align=center;verticalAlign=middle;resizable=0;points=[];" vertex="1" connectable="0" parent="SRNSHd6ge_EsEEtdElFu-34">
          <mxGeometry x="-0.4722" y="-3" relative="1" as="geometry">
            <mxPoint y="-23" as="offset" />
          </mxGeometry>
        </mxCell>
        <mxCell id="SRNSHd6ge_EsEEtdElFu-27" value="&lt;p style=&quot;line-height: 80%;&quot;&gt;Слово содержит цифры&lt;br&gt;&lt;/p&gt;" style="strokeWidth=2;html=1;shape=mxgraph.flowchart.decision;whiteSpace=wrap;" vertex="1" parent="WIyWlLk6GJQsqaUBKTNV-1">
          <mxGeometry x="310" y="210" width="200" height="60" as="geometry" />
        </mxCell>
        <mxCell id="SRNSHd6ge_EsEEtdElFu-33" value="" style="edgeStyle=orthogonalEdgeStyle;rounded=0;orthogonalLoop=1;jettySize=auto;html=1;" edge="1" parent="WIyWlLk6GJQsqaUBKTNV-1" source="SRNSHd6ge_EsEEtdElFu-28" target="SRNSHd6ge_EsEEtdElFu-29">
          <mxGeometry relative="1" as="geometry" />
        </mxCell>
        <mxCell id="SRNSHd6ge_EsEEtdElFu-59" value="Да" style="edgeLabel;html=1;align=center;verticalAlign=middle;resizable=0;points=[];" vertex="1" connectable="0" parent="SRNSHd6ge_EsEEtdElFu-33">
          <mxGeometry x="0.6414" relative="1" as="geometry">
            <mxPoint x="20" as="offset" />
          </mxGeometry>
        </mxCell>
        <mxCell id="SRNSHd6ge_EsEEtdElFu-57" style="edgeStyle=orthogonalEdgeStyle;rounded=0;orthogonalLoop=1;jettySize=auto;html=1;" edge="1" parent="WIyWlLk6GJQsqaUBKTNV-1" source="SRNSHd6ge_EsEEtdElFu-28">
          <mxGeometry relative="1" as="geometry">
            <mxPoint x="410" y="440" as="targetPoint" />
            <Array as="points">
              <mxPoint x="270" y="320" />
              <mxPoint x="270" y="440" />
            </Array>
          </mxGeometry>
        </mxCell>
        <mxCell id="SRNSHd6ge_EsEEtdElFu-58" value="Нет" style="edgeLabel;html=1;align=center;verticalAlign=middle;resizable=0;points=[];" vertex="1" connectable="0" parent="SRNSHd6ge_EsEEtdElFu-57">
          <mxGeometry x="-0.8958" y="-1" relative="1" as="geometry">
            <mxPoint y="-19" as="offset" />
          </mxGeometry>
        </mxCell>
        <mxCell id="SRNSHd6ge_EsEEtdElFu-28" value="result_size &gt;= max_words" style="strokeWidth=2;html=1;shape=mxgraph.flowchart.decision;whiteSpace=wrap;" vertex="1" parent="WIyWlLk6GJQsqaUBKTNV-1">
          <mxGeometry x="310" y="290" width="200" height="60" as="geometry" />
        </mxCell>
        <mxCell id="SRNSHd6ge_EsEEtdElFu-55" value="" style="edgeStyle=orthogonalEdgeStyle;rounded=0;orthogonalLoop=1;jettySize=auto;html=1;" edge="1" parent="WIyWlLk6GJQsqaUBKTNV-1" source="SRNSHd6ge_EsEEtdElFu-29" target="SRNSHd6ge_EsEEtdElFu-54">
          <mxGeometry relative="1" as="geometry" />
        </mxCell>
        <mxCell id="SRNSHd6ge_EsEEtdElFu-29" value="&lt;div&gt;Удвоить размер массива result&lt;/div&gt;" style="rounded=1;whiteSpace=wrap;html=1;absoluteArcSize=1;arcSize=14;strokeWidth=2;strokeColor=default;align=center;verticalAlign=middle;fillColor=default;" vertex="1" parent="WIyWlLk6GJQsqaUBKTNV-1">
          <mxGeometry x="310" y="370" width="200" height="60" as="geometry" />
        </mxCell>
        <mxCell id="SRNSHd6ge_EsEEtdElFu-42" style="edgeStyle=orthogonalEdgeStyle;rounded=0;orthogonalLoop=1;jettySize=auto;html=1;" edge="1" parent="WIyWlLk6GJQsqaUBKTNV-1" source="SRNSHd6ge_EsEEtdElFu-30">
          <mxGeometry relative="1" as="geometry">
            <mxPoint x="410" y="540" as="targetPoint" />
            <Array as="points">
              <mxPoint x="670" y="540" />
              <mxPoint x="410" y="540" />
            </Array>
          </mxGeometry>
        </mxCell>
        <mxCell id="SRNSHd6ge_EsEEtdElFu-30" value="удалить слово" style="rounded=1;whiteSpace=wrap;html=1;absoluteArcSize=1;arcSize=14;strokeWidth=2;strokeColor=default;align=center;verticalAlign=middle;fillColor=default;" vertex="1" parent="WIyWlLk6GJQsqaUBKTNV-1">
          <mxGeometry x="570" y="210" width="200" height="60" as="geometry" />
        </mxCell>
        <mxCell id="SRNSHd6ge_EsEEtdElFu-32" style="edgeStyle=orthogonalEdgeStyle;rounded=0;orthogonalLoop=1;jettySize=auto;html=1;entryX=0.5;entryY=0;entryDx=0;entryDy=0;entryPerimeter=0;" edge="1" parent="WIyWlLk6GJQsqaUBKTNV-1" source="SRNSHd6ge_EsEEtdElFu-27" target="SRNSHd6ge_EsEEtdElFu-28">
          <mxGeometry relative="1" as="geometry" />
        </mxCell>
        <mxCell id="SRNSHd6ge_EsEEtdElFu-53" value="Да" style="edgeLabel;html=1;align=center;verticalAlign=middle;resizable=0;points=[];" vertex="1" connectable="0" parent="SRNSHd6ge_EsEEtdElFu-32">
          <mxGeometry x="0.6095" relative="1" as="geometry">
            <mxPoint x="20" as="offset" />
          </mxGeometry>
        </mxCell>
        <mxCell id="SRNSHd6ge_EsEEtdElFu-35" value="Установка start = end" style="rounded=1;whiteSpace=wrap;html=1;absoluteArcSize=1;arcSize=14;strokeWidth=2;strokeColor=default;align=center;verticalAlign=middle;fillColor=default;" vertex="1" parent="WIyWlLk6GJQsqaUBKTNV-1">
          <mxGeometry x="310" y="560" width="200" height="60" as="geometry" />
        </mxCell>
        <mxCell id="SRNSHd6ge_EsEEtdElFu-62" value="" style="edgeStyle=orthogonalEdgeStyle;rounded=0;orthogonalLoop=1;jettySize=auto;html=1;" edge="1" parent="WIyWlLk6GJQsqaUBKTNV-1" source="SRNSHd6ge_EsEEtdElFu-36" target="9ljaJpIGZ5TEdeZAWfaT-3">
          <mxGeometry relative="1" as="geometry" />
        </mxCell>
        <mxCell id="SRNSHd6ge_EsEEtdElFu-36" value="Освобождение памяти" style="rounded=1;whiteSpace=wrap;html=1;absoluteArcSize=1;arcSize=14;strokeWidth=2;strokeColor=default;align=center;verticalAlign=middle;fillColor=default;" vertex="1" parent="WIyWlLk6GJQsqaUBKTNV-1">
          <mxGeometry x="310" y="750" width="200" height="60" as="geometry" />
        </mxCell>
        <mxCell id="SRNSHd6ge_EsEEtdElFu-38" style="edgeStyle=orthogonalEdgeStyle;rounded=0;orthogonalLoop=1;jettySize=auto;html=1;entryX=0;entryY=0.5;entryDx=0;entryDy=0;entryPerimeter=0;exitX=0;exitY=0.5;exitDx=0;exitDy=0;" edge="1" parent="WIyWlLk6GJQsqaUBKTNV-1" source="SRNSHd6ge_EsEEtdElFu-35" target="SRNSHd6ge_EsEEtdElFu-8">
          <mxGeometry relative="1" as="geometry">
            <Array as="points">
              <mxPoint x="150" y="590" />
              <mxPoint x="150" y="-390" />
            </Array>
          </mxGeometry>
        </mxCell>
        <mxCell id="SRNSHd6ge_EsEEtdElFu-51" style="edgeStyle=orthogonalEdgeStyle;rounded=0;orthogonalLoop=1;jettySize=auto;html=1;entryX=0.5;entryY=0;entryDx=0;entryDy=0;entryPerimeter=0;" edge="1" parent="WIyWlLk6GJQsqaUBKTNV-1" source="SRNSHd6ge_EsEEtdElFu-23" target="SRNSHd6ge_EsEEtdElFu-27">
          <mxGeometry relative="1" as="geometry" />
        </mxCell>
        <mxCell id="SRNSHd6ge_EsEEtdElFu-56" value="" style="edgeStyle=orthogonalEdgeStyle;rounded=0;orthogonalLoop=1;jettySize=auto;html=1;" edge="1" parent="WIyWlLk6GJQsqaUBKTNV-1" source="SRNSHd6ge_EsEEtdElFu-54" target="SRNSHd6ge_EsEEtdElFu-35">
          <mxGeometry relative="1" as="geometry" />
        </mxCell>
        <mxCell id="SRNSHd6ge_EsEEtdElFu-54" value="Добавить слово в result;&#xa;result_size++" style="rounded=1;whiteSpace=wrap;html=1;absoluteArcSize=1;arcSize=14;strokeWidth=2;strokeColor=default;align=center;verticalAlign=middle;fillColor=default;" vertex="1" parent="WIyWlLk6GJQsqaUBKTNV-1">
          <mxGeometry x="310" y="460" width="200" height="60" as="geometry" />
        </mxCell>
      </root>
    </mxGraphModel>
  </diagram>
</mxfile>
